<?xml version="1.0" standalone="no"?>
<!DOCTYPE svg PUBLIC "-//W3C//DTD SVG 20010904//EN"
 "http://www.w3.org/TR/2001/REC-SVG-20010904/DTD/svg10.dtd">
<svg version="1.0" xmlns="http://www.w3.org/2000/svg"
 width="1024.000000pt" height="1024.000000pt" viewBox="0 0 1024.000000 1024.000000"
 preserveAspectRatio="xMidYMid meet">
<metadata>
Created by potrace 1.14, written by Peter Selinger 2001-2017
</metadata>
<g transform="translate(0.000000,1024.000000) scale(0.100000,-0.100000)"
fill="#000000" stroke="none">
<path d="M4806 9814 c-3 -9 -11 -12 -18 -8 -8 5 -9 1 -5 -12 6 -17 6 -17 -6
-2 -12 15 -14 15 -24 0 -10 -14 -11 -13 -7 8 2 14 2 19 -2 12 -3 -6 -10 -10
-14 -7 -5 3 -12 0 -16 -6 -4 -8 -3 -9 4 -5 7 4 12 2 12 -3 0 -16 -11 -13 -32
6 -18 16 -18 16 -12 -1 6 -15 3 -17 -12 -12 -10 3 -25 2 -33 -3 -18 -11 -41
-3 -37 12 1 7 1 9 -2 4 -2 -4 -13 -12 -24 -18 -11 -6 -18 -7 -15 -2 3 4 -8 9
-25 10 -22 0 -27 -2 -17 -9 10 -6 7 -8 -11 -6 -14 2 -28 8 -32 13 -4 6 -8 2
-8 -8 0 -15 -3 -16 -20 -7 -19 10 -25 4 -21 -22 2 -17 -10 -7 -19 15 -8 19 -9
20 -9 3 -1 -20 -1 -20 -16 0 -14 18 -14 18 -9 -3 5 -18 3 -21 -15 -16 -12 3
-21 9 -21 15 0 5 -6 3 -14 -4 -7 -7 -11 -20 -9 -28 3 -10 1 -9 -7 3 -9 13 -15
15 -31 7 -11 -6 -16 -16 -13 -22 4 -7 3 -8 -5 -4 -6 4 -9 12 -6 17 4 5 -1 9
-10 9 -12 0 -15 -5 -11 -17 6 -16 5 -16 -11 -1 -17 15 -20 15 -42 -3 -26 -22
-46 -25 -35 -6 4 6 -2 4 -13 -6 -14 -12 -23 -15 -28 -8 -4 7 -12 8 -24 1 -12
-6 -22 -5 -30 3 -10 9 -11 8 -6 -5 5 -13 2 -15 -16 -11 -14 4 -20 2 -15 -5 3
-6 2 -13 -3 -16 -5 -4 -13 -1 -17 5 -5 8 -3 9 6 4 9 -5 11 -4 6 3 -5 9 -12 9
-26 0 -10 -7 -16 -17 -12 -23 3 -5 -2 -4 -11 4 -15 12 -20 11 -36 -3 -14 -13
-21 -14 -27 -5 -5 9 -10 7 -20 -5 -7 -10 -17 -15 -23 -11 -6 3 -11 2 -11 -3 0
-5 -11 -8 -25 -7 -14 2 -23 0 -21 -3 2 -4 -3 -14 -12 -22 -14 -13 -15 -12 -9
3 8 21 -6 22 -27 2 -8 -8 -26 -15 -41 -15 -14 0 -24 -4 -21 -8 2 -4 -4 -9 -15
-9 -11 -1 -17 3 -13 9 4 6 -2 6 -15 -1 -12 -7 -27 -9 -33 -5 -7 4 -8 3 -4 -4
7 -12 -30 -36 -44 -27 -5 3 -12 0 -16 -6 -4 -8 -9 -7 -15 2 -7 12 -10 12 -21
0 -7 -8 -8 -11 -2 -8 7 4 14 0 17 -8 5 -11 1 -12 -19 -5 -14 6 -23 7 -20 2 2
-4 -7 -12 -20 -19 -13 -6 -22 -7 -18 -2 3 5 1 9 -4 9 -5 0 -12 -10 -15 -22 -5
-18 -8 -19 -21 -9 -13 11 -17 11 -22 -2 -3 -9 -14 -14 -26 -12 -17 4 -18 2 -6
-12 10 -14 10 -15 0 -9 -8 5 -22 1 -34 -11 -12 -10 -18 -12 -14 -5 4 6 2 12
-3 12 -6 0 -11 -5 -11 -11 0 -5 -5 -7 -10 -4 -6 4 -17 2 -24 -4 -8 -7 -18 -11
-22 -10 -5 1 -12 0 -16 -1 -5 -1 -11 -3 -15 -5 -26 -7 -42 -18 -37 -26 3 -5
-2 -9 -11 -9 -9 0 -26 -6 -38 -14 -12 -7 -32 -13 -44 -12 -17 2 -20 0 -12 -10
7 -8 7 -14 -1 -19 -5 -3 -10 0 -10 7 0 7 -10 2 -21 -12 -11 -14 -18 -20 -15
-13 5 10 0 10 -33 4 -2 -1 2 -8 9 -17 11 -12 11 -15 -1 -12 -8 2 -17 8 -21 13
-5 6 -8 6 -8 -1 0 -7 -11 -15 -25 -18 -15 -4 -25 -14 -25 -24 0 -13 -2 -14 -9
-4 -7 11 -9 11 -14 -2 -5 -11 -15 -15 -32 -12 -14 3 -25 0 -25 -5 0 -5 5 -9
11 -9 5 0 8 -4 4 -9 -3 -6 -14 -8 -25 -6 -13 3 -20 -2 -21 -13 0 -10 -3 -12
-6 -4 -2 6 -9 12 -14 12 -4 0 -6 -7 -3 -15 5 -11 2 -13 -12 -8 -14 5 -16 3
-11 -10 6 -15 3 -16 -13 -7 -16 9 -20 8 -20 -5 0 -8 -7 -15 -15 -15 -8 0 -15
-6 -15 -12 0 -9 -4 -8 -10 2 -8 13 -10 13 -10 -1 0 -9 -8 -23 -17 -30 -17 -13
-17 -13 -3 5 14 18 14 18 -7 6 -12 -8 -20 -16 -18 -20 1 -3 -9 -14 -24 -24
l-26 -20 20 25 20 24 -20 -15 c-28 -21 -35 -32 -27 -45 3 -5 -3 -3 -13 5 -17
14 -18 13 -12 -10 5 -23 5 -23 -7 -7 -12 16 -14 16 -20 1 -3 -9 -4 -20 -1 -25
4 -5 -1 -6 -9 -3 -8 3 -25 -4 -37 -15 -13 -12 -28 -21 -33 -21 -6 0 -4 5 4 11
13 9 13 10 0 6 -8 -2 -15 -13 -14 -24 0 -16 -5 -20 -23 -18 -13 1 -23 -3 -23
-10 0 -15 -27 -28 -41 -20 -5 4 -6 -1 -3 -10 4 -10 2 -15 -7 -13 -8 2 -13 -4
-13 -13 1 -11 -6 -15 -23 -13 -20 2 -24 -1 -20 -16 3 -13 0 -16 -13 -13 -10 3
-20 -2 -24 -12 -3 -9 -10 -13 -16 -10 -6 4 -7 -1 -3 -11 4 -11 2 -15 -4 -11
-5 4 -19 0 -29 -8 -17 -13 -17 -16 -4 -25 12 -8 9 -9 -12 -6 -22 4 -29 0 -37
-22 -5 -15 -10 -20 -10 -12 -1 10 -6 7 -17 -9 -9 -12 -35 -32 -58 -42 -22 -11
-33 -17 -24 -15 12 4 15 1 11 -10 -3 -8 -8 -12 -11 -10 -3 3 -11 -2 -19 -12
-10 -11 -12 -12 -8 -2 6 15 -8 -2 -41 -47 -10 -14 -22 -19 -32 -16 -10 4 -14
3 -11 -1 8 -9 -43 -63 -54 -58 -4 2 -7 0 -6 -5 4 -21 -2 -33 -17 -33 -8 0 -13
-4 -10 -9 3 -5 -2 -15 -11 -22 -14 -12 -16 -12 -8 1 8 13 6 13 -8 1 -9 -7 -14
-17 -11 -22 3 -5 -10 -15 -28 -24 -18 -8 -24 -13 -13 -10 16 5 18 4 7 -7 -7
-7 -16 -13 -20 -13 -17 0 -58 -41 -54 -54 3 -9 0 -11 -8 -6 -10 6 -12 4 -7 -9
4 -10 3 -15 -3 -11 -6 3 -10 1 -10 -5 0 -6 -4 -9 -9 -5 -5 3 -13 0 -17 -6 -4
-8 -3 -9 4 -5 7 4 12 2 12 -3 0 -10 -14 -15 -33 -12 -4 1 -3 -7 2 -18 9 -16 8
-19 -7 -17 -17 3 -32 -10 -32 -29 0 -5 5 -3 11 5 9 13 10 13 6 0 -2 -8 -11
-14 -21 -12 -11 2 -16 -4 -16 -18 0 -14 -4 -19 -12 -14 -8 5 -9 2 -5 -9 4 -10
2 -16 -6 -14 -7 1 -11 -7 -10 -18 1 -20 1 -20 -13 -1 -14 19 -14 19 -14 -2 0
-12 -6 -22 -12 -22 -9 0 -8 -4 2 -11 12 -9 11 -10 -6 -6 -17 4 -20 0 -16 -20
3 -18 1 -22 -12 -17 -11 4 -16 2 -14 -7 2 -7 -3 -13 -11 -14 -8 0 -16 -7 -18
-15 -4 -13 -3 -13 6 0 6 9 11 10 11 3 0 -6 -13 -22 -29 -36 -17 -14 -27 -28
-24 -31 4 -3 1 -6 -5 -6 -7 0 -12 -7 -12 -16 0 -8 -4 -12 -10 -9 -5 3 -10 1
-10 -5 0 -6 -4 -9 -9 -6 -5 3 -7 -8 -6 -24 2 -27 1 -29 -13 -18 -12 10 -14 10
-8 1 4 -8 2 -13 -6 -13 -8 0 -14 -8 -14 -19 0 -12 6 -17 16 -15 8 3 0 -3 -18
-13 -23 -12 -32 -23 -29 -34 4 -13 0 -16 -15 -14 -17 4 -18 2 -6 -12 11 -15
11 -16 -4 -10 -12 4 -18 1 -18 -9 0 -9 5 -12 13 -8 9 6 9 5 0 -8 -7 -8 -9 -19
-5 -24 4 -4 0 -4 -8 2 -11 8 -19 6 -33 -8 -9 -10 -12 -18 -6 -18 6 0 9 -6 6
-12 -2 -7 -10 -12 -17 -10 -11 3 -11 0 0 -13 11 -13 10 -14 -5 -9 -13 5 -16 4
-11 -4 4 -8 1 -12 -10 -12 -10 0 -14 -3 -11 -7 4 -3 2 -12 -5 -20 -9 -11 -7
-12 8 -7 18 5 18 5 2 -9 -10 -8 -14 -18 -10 -22 4 -5 1 -4 -7 0 -11 6 -13 4
-7 -10 5 -15 4 -16 -9 -5 -9 7 -15 9 -13 4 1 -5 -4 -20 -11 -33 -7 -13 -8 -21
-3 -17 6 3 14 1 18 -5 4 -8 3 -9 -4 -5 -7 4 -12 2 -12 -4 0 -6 -5 -8 -12 -4
-8 5 -9 2 -4 -11 5 -15 4 -16 -9 -5 -21 17 -19 5 2 -16 17 -17 17 -17 -3 -12
-18 5 -22 2 -19 -18 1 -14 -2 -27 -8 -31 -6 -4 -7 -1 -2 7 5 9 4 11 -4 6 -9
-6 -9 -11 1 -24 10 -12 10 -14 1 -8 -12 6 -16 -4 -12 -30 0 -4 -5 -10 -13 -15
-7 -5 -13 -16 -13 -26 0 -12 -7 -17 -19 -15 -14 3 -17 -1 -13 -12 4 -11 1 -16
-11 -16 -10 0 -13 -3 -7 -8 12 -9 16 -42 5 -42 -5 0 -11 6 -14 13 -3 6 -5 0
-3 -15 3 -19 0 -25 -10 -21 -9 4 -11 0 -6 -13 4 -12 3 -15 -5 -10 -7 4 -12 2
-12 -3 0 -6 5 -11 10 -11 6 0 10 -5 10 -11 0 -5 -4 -7 -10 -4 -5 3 -10 -1 -10
-10 0 -10 -6 -15 -13 -12 -7 3 -13 -3 -13 -13 0 -10 4 -17 7 -14 4 2 10 0 14
-6 3 -6 -4 -10 -17 -11 -13 0 -17 -3 -11 -6 9 -3 10 -10 3 -22 -5 -10 -6 -21
-2 -25 3 -4 -2 -4 -13 0 -17 7 -18 6 -7 -8 10 -13 10 -18 1 -24 -8 -4 -9 -3
-5 4 4 7 2 10 -7 6 -16 -6 -18 -36 -3 -46 7 -5 4 -8 -6 -8 -10 0 -18 -7 -18
-15 0 -8 5 -15 11 -15 5 0 7 5 3 12 -4 7 -3 8 5 4 15 -9 3 -29 -13 -23 -7 3
-19 1 -27 -4 -11 -7 -10 -9 6 -10 l20 0 -20 -9 c-11 -5 -14 -9 -7 -9 6 -1 12
-6 12 -12 0 -5 -4 -8 -9 -5 -5 3 -12 -1 -15 -10 -3 -8 -11 -12 -17 -8 -8 4 -9
3 -5 -5 4 -6 13 -8 19 -4 8 4 7 1 -1 -9 -10 -13 -10 -17 0 -21 8 -3 6 -6 -5
-6 -15 -1 -16 -4 -6 -23 11 -21 11 -22 -4 -10 -13 11 -15 10 -13 -11 2 -13 7
-30 11 -38 5 -8 0 -7 -12 4 -16 14 -20 15 -20 2 0 -8 4 -15 9 -15 9 0 6 -29
-5 -47 -5 -7 -5 -19 -1 -25 6 -10 5 -10 -7 -1 -14 11 -16 9 -14 -17 1 -21 -2
-27 -9 -20 -8 6 -12 3 -12 -11 0 -11 5 -18 13 -15 7 3 15 1 18 -5 4 -5 3 -9
-2 -8 -28 5 -42 -2 -36 -18 5 -11 3 -14 -6 -8 -8 4 -6 -3 4 -18 11 -17 13 -27
5 -32 -6 -3 -7 -11 -4 -17 4 -7 2 -8 -4 -4 -7 4 -12 2 -12 -4 0 -6 -4 -9 -9
-6 -14 9 -21 -20 -8 -33 8 -8 6 -14 -8 -24 -14 -11 -15 -16 -5 -22 9 -6 11 -4
5 5 -5 9 -4 11 4 6 14 -9 5 -26 -14 -26 -8 0 -17 -5 -21 -11 -4 -8 1 -9 17 -5
24 7 24 7 -1 -8 -16 -10 -20 -16 -10 -16 10 -1 9 -4 -5 -10 l-20 -9 20 0 c17
-1 17 -3 5 -11 -8 -5 -10 -10 -4 -10 7 0 15 -7 18 -16 6 -15 4 -15 -11 -3 -10
7 -15 10 -11 5 4 -4 3 -19 -3 -33 -5 -13 -5 -22 -1 -19 5 3 9 -1 9 -9 0 -11
-5 -12 -20 -3 -14 7 -18 7 -12 -1 4 -7 2 -18 -4 -25 -8 -9 -5 -18 10 -34 11
-12 15 -22 9 -22 -6 0 -8 -4 -5 -10 3 -5 1 -10 -5 -10 -7 0 -10 7 -7 15 4 8 3
17 -2 19 -10 6 -11 -26 -1 -39 4 -5 6 -18 4 -27 -2 -10 -5 -25 -7 -34 -2 -8
-10 -20 -18 -25 -8 -5 -9 -9 -3 -9 7 0 15 -7 18 -16 4 -9 2 -13 -5 -8 -7 4
-10 1 -7 -7 3 -8 -4 -20 -16 -27 -21 -13 -21 -13 2 -7 13 4 22 2 22 -4 0 -6
-7 -11 -16 -11 -14 0 -14 -3 -4 -16 8 -8 9 -14 4 -13 -5 1 -16 1 -24 0 -13 -1
-13 -2 0 -11 8 -5 11 -10 7 -10 -4 0 -3 -9 3 -19 7 -14 7 -22 -2 -27 -6 -4 -8
-3 -4 4 3 6 1 14 -5 18 -7 4 -9 3 -5 -4 3 -5 0 -13 -6 -15 -10 -4 -10 -6 0 -6
7 -1 10 -6 6 -13 -4 -6 -3 -8 3 -5 7 4 10 -3 9 -18 -1 -18 -5 -24 -16 -20 -8
4 -4 -5 9 -19 22 -24 23 -26 6 -32 -17 -7 -17 -8 1 -21 10 -7 12 -13 6 -13 -7
0 -12 -7 -12 -15 0 -8 -4 -15 -10 -15 -5 0 -10 -5 -10 -11 0 -5 5 -7 12 -3 6
4 8 3 4 -4 -3 -5 0 -13 6 -15 10 -4 10 -6 0 -6 -7 -1 -11 -5 -7 -10 3 -5 1
-12 -4 -16 -6 -3 -8 4 -6 15 2 11 0 18 -6 15 -5 -4 -7 -11 -4 -16 4 -5 0 -9
-7 -9 -7 -1 -2 -8 12 -16 21 -13 22 -15 4 -11 -13 3 -21 -1 -21 -10 0 -8 6
-12 16 -8 13 5 13 4 -1 -12 -8 -10 -13 -24 -10 -32 3 -9 0 -11 -9 -7 -8 4 -6
1 4 -7 14 -11 15 -16 5 -20 -10 -4 -10 -6 1 -6 11 -1 10 -5 -5 -15 -18 -14
-18 -15 -1 -21 14 -6 15 -10 6 -21 -6 -8 -7 -14 -2 -14 6 0 9 -12 7 -27 -1
-16 -2 -36 -3 -46 -1 -10 -5 -15 -11 -12 -6 3 -7 -1 -4 -9 3 -9 11 -16 18 -16
7 0 6 -4 -3 -9 -10 -6 -10 -10 -1 -16 8 -5 5 -15 -12 -33 -13 -15 -15 -20 -5
-13 15 12 20 12 30 1 9 -10 9 -11 0 -6 -7 4 -14 2 -14 -3 -1 -6 -2 -17 -3 -23
-1 -7 0 -17 3 -23 3 -5 6 -18 6 -27 1 -14 -1 -15 -12 -7 -21 18 -15 2 8 -20
15 -14 17 -21 8 -26 -8 -6 -10 -4 -4 6 7 12 6 12 -6 0 -11 -11 -11 -14 -1 -18
10 -4 10 -8 0 -21 -11 -12 -11 -16 0 -20 10 -3 10 -7 1 -19 -10 -11 -10 -16 0
-23 9 -5 10 -10 3 -14 -14 -8 -5 -37 16 -54 11 -8 12 -12 3 -12 -7 0 -9 -5 -5
-12 4 -6 3 -8 -4 -4 -6 3 -14 1 -18 -5 -4 -7 -3 -9 2 -6 6 3 16 2 24 -4 13 -7
12 -9 -2 -9 -11 0 -15 -5 -12 -14 3 -9 13 -12 22 -9 13 4 12 2 -3 -10 -11 -8
-24 -13 -29 -10 -5 4 -6 1 -2 -5 5 -9 13 -9 29 -1 21 12 22 11 4 -8 -11 -13
-15 -27 -11 -38 6 -14 4 -16 -6 -10 -9 5 -11 4 -6 -4 6 -9 11 -9 22 0 12 10
13 9 8 -5 -3 -9 -1 -22 5 -29 8 -10 5 -19 -11 -37 -17 -18 -18 -22 -5 -17 9 3
19 1 23 -5 4 -7 3 -8 -4 -4 -8 5 -12 -2 -12 -19 0 -18 4 -24 13 -19 6 4 9 4 5
-1 -4 -4 -3 -16 3 -26 7 -15 6 -17 -6 -13 -8 3 -12 11 -8 17 3 6 1 7 -6 3 -7
-5 -9 -12 -3 -19 5 -7 8 -22 7 -35 -2 -20 7 -27 29 -23 5 1 4 -5 -3 -13 -15
-18 -22 -78 -8 -69 5 3 7 14 4 24 -3 11 -1 16 5 13 5 -3 8 -14 5 -24 -2 -10
-1 -24 3 -31 5 -7 4 -23 0 -35 -6 -15 -5 -26 2 -30 6 -4 8 -3 4 4 -3 6 -2 13
3 16 11 7 9 -13 -2 -32 -6 -8 0 -15 15 -21 16 -7 18 -10 6 -10 -9 -1 -20 -6
-23 -12 -9 -14 25 -50 39 -42 6 4 6 0 -1 -9 -7 -8 -10 -18 -6 -21 3 -4 6 -20
5 -37 0 -16 4 -30 11 -30 8 0 8 -3 -1 -12 -16 -16 -15 -28 2 -28 8 0 17 -4 20
-9 4 -5 -4 -7 -16 -4 -17 3 -19 2 -9 -5 11 -8 11 -10 0 -15 -8 -3 -4 -6 9 -6
12 -1 22 -6 22 -12 0 -5 -5 -7 -10 -4 -5 3 -10 2 -10 -4 0 -5 8 -12 18 -14 12
-3 9 -5 -8 -6 -24 -2 -24 -2 -3 -11 15 -6 20 -15 16 -29 -3 -13 -1 -21 7 -21
9 0 9 -4 -1 -17 -12 -14 -12 -15 0 -9 10 7 12 3 6 -15 -5 -18 -4 -20 4 -9 9
13 12 13 23 1 7 -8 8 -11 2 -8 -7 4 -15 0 -18 -9 -3 -8 -2 -13 3 -10 13 8 21
-18 11 -34 -12 -19 -3 -30 23 -31 20 -1 20 -2 -3 -9 -21 -7 -22 -8 -5 -9 17
-1 17 -3 5 -11 -13 -8 -13 -10 2 -10 17 0 19 -15 4 -39 -5 -8 -5 -12 0 -9 5 3
15 0 21 -7 10 -11 8 -15 -10 -18 -21 -4 -21 -4 -1 -6 25 -1 53 -28 29 -28 -8
0 -11 5 -8 11 3 6 2 7 -2 3 -12 -10 -15 -38 -4 -31 5 3 9 -1 9 -8 0 -9 3 -9
10 2 6 9 10 10 10 3 0 -6 -4 -15 -10 -18 -5 -3 -10 -12 -10 -18 0 -8 3 -8 9 1
7 11 9 11 14 -2 4 -9 2 -16 -4 -16 -6 0 -7 -5 -4 -10 4 -6 12 -7 18 -4 9 5 9
3 0 -6 -10 -11 -9 -16 5 -27 9 -8 12 -12 5 -9 -6 4 -15 1 -19 -5 -4 -8 -3 -9
4 -5 7 4 12 2 12 -4 0 -6 5 -8 11 -4 8 4 9 -1 4 -16 -5 -16 -4 -20 5 -15 9 5
10 1 5 -15 -5 -15 -4 -20 4 -16 6 4 11 0 11 -9 0 -10 5 -13 13 -9 7 5 6 0 -3
-11 -12 -15 -12 -17 -1 -10 11 6 13 4 8 -9 -5 -13 -3 -17 7 -13 8 3 13 -1 13
-11 0 -33 3 -43 11 -38 5 3 9 -1 9 -9 0 -8 -3 -12 -7 -10 -4 2 -7 -2 -7 -10 0
-8 3 -13 6 -11 3 2 17 -11 31 -28 17 -22 18 -26 4 -14 -19 16 -20 16 -20 -2 0
-10 3 -17 6 -15 3 2 12 0 20 -6 10 -6 11 -9 3 -9 -7 0 -13 -5 -13 -11 0 -5 4
-7 10 -4 6 4 10 -5 10 -19 0 -14 5 -26 11 -26 5 0 7 4 4 10 -4 6 1 7 11 3 11
-4 13 -8 6 -11 -14 -4 -16 -42 -2 -42 5 0 9 -9 7 -21 -1 -13 6 -26 18 -33 11
-6 22 -12 25 -14 2 -2 -2 -7 -10 -12 -11 -7 -12 -10 -2 -10 7 0 10 -4 7 -10
-4 -6 1 -7 11 -3 12 4 15 3 10 -5 -4 -7 -3 -12 2 -12 6 0 8 -9 5 -19 -3 -13 2
-21 16 -26 12 -4 21 -15 21 -27 0 -11 8 -27 18 -34 16 -13 16 -14 -3 -7 -17 6
-18 5 -5 -11 8 -9 26 -29 40 -43 14 -15 18 -21 10 -15 -13 9 -16 7 -16 -7 0
-13 6 -17 21 -13 17 5 18 3 7 -11 -12 -14 -11 -16 10 -12 21 4 21 3 5 -9 -23
-18 -22 -26 3 -21 13 2 18 0 14 -7 -4 -5 0 -15 7 -20 11 -7 11 -11 1 -15 -6
-2 -9 -9 -6 -14 3 -6 12 -2 20 8 13 17 14 17 7 -1 -4 -12 -3 -17 4 -13 6 4 9
-3 7 -19 -2 -21 0 -23 12 -13 7 6 11 16 7 22 -4 6 -1 7 6 2 9 -5 10 -10 2 -18
-16 -16 -13 -30 4 -23 13 4 14 2 5 -14 -8 -14 -8 -20 0 -20 6 0 8 -6 4 -12 -6
-10 -4 -10 8 0 14 11 16 10 14 -13 -2 -14 -1 -23 2 -21 6 7 32 -20 32 -34 0
-6 3 -9 8 -7 4 3 15 -6 25 -19 16 -21 16 -23 1 -17 -15 6 -15 4 1 -20 18 -28
31 -37 20 -15 -4 7 1 4 10 -7 9 -11 21 -19 26 -17 6 1 8 -2 4 -8 -5 -8 -12 -7
-23 2 -12 9 -11 5 2 -10 11 -12 25 -21 31 -18 7 2 12 -2 12 -10 0 -7 -4 -11
-9 -8 -4 3 -8 1 -8 -5 0 -5 5 -13 10 -16 6 -4 7 -11 4 -17 -4 -7 -2 -8 5 -4 6
4 9 11 6 16 -3 5 -1 12 5 15 6 4 10 3 9 -2 -3 -20 2 -34 11 -28 6 4 7 -1 3
-11 -5 -14 -3 -16 10 -11 14 5 16 3 8 -12 -13 -23 -3 -35 16 -20 10 9 13 7 13
-10 0 -12 6 -21 16 -21 8 0 13 -4 10 -9 -4 -5 -1 -11 5 -13 6 -2 12 -17 12
-32 0 -18 2 -24 8 -15 4 7 5 18 1 24 -3 5 2 4 11 -4 18 -15 23 -26 7 -16 -5 3
-10 1 -10 -4 0 -6 5 -11 12 -11 19 0 47 -31 42 -45 -6 -15 29 -38 42 -27 5 4
2 -1 -5 -10 -12 -16 -11 -18 3 -18 10 0 14 -4 11 -10 -3 -5 -1 -10 5 -10 6 0
8 -5 4 -12 -5 -8 0 -7 11 2 11 9 16 10 11 3 -4 -8 -2 -13 6 -13 9 0 9 -3 -2
-11 -12 -8 -10 -9 9 -7 15 2 26 -3 28 -12 4 -13 3 -13 -6 0 -8 11 -11 12 -11
2 0 -16 25 -43 33 -36 3 4 16 -1 29 -10 12 -9 18 -16 12 -16 -5 0 -16 6 -23
13 -11 10 -12 9 -5 -3 5 -8 9 -19 9 -24 0 -5 7 -11 15 -13 13 -4 13 -3 0 6
-12 8 -11 10 7 8 12 0 19 -5 16 -10 -6 -10 32 -48 41 -40 3 4 6 1 6 -6 0 -17
26 -42 34 -33 4 3 4 -2 0 -12 -5 -13 -4 -17 4 -12 6 3 18 -6 28 -23 11 -19 23
-27 32 -23 9 3 13 1 10 -4 -7 -12 38 -55 48 -46 5 4 2 -2 -6 -12 -10 -13 -10
-17 -3 -12 8 4 13 2 13 -6 1 -9 5 -7 14 5 11 14 15 15 19 4 3 -8 2 -18 -1 -23
-4 -5 -5 -8 -3 -7 2 2 10 -5 18 -15 8 -9 12 -11 8 -5 -4 9 -1 11 10 7 9 -4 14
-12 11 -20 -3 -8 2 -11 15 -9 11 2 17 0 15 -4 -3 -4 6 -18 19 -29 28 -25 40
-28 29 -9 -5 8 -2 8 9 -2 18 -15 23 -26 7 -16 -5 3 -10 1 -10 -4 0 -6 7 -11
16 -11 10 0 14 -6 11 -14 -4 -10 0 -14 14 -11 17 3 23 -5 21 -26 -1 -4 9 -5
21 -2 18 4 20 3 7 -7 -12 -10 -11 -11 8 -7 12 3 20 2 17 -2 -8 -14 26 -51 46
-51 10 0 19 -6 19 -14 0 -9 9 -13 25 -12 13 2 22 -1 19 -5 -3 -5 0 -9 5 -9 6
0 11 -7 11 -16 0 -8 5 -12 10 -9 6 3 10 1 10 -6 0 -9 3 -9 14 0 12 10 13 8 8
-11 -5 -21 -4 -22 11 -9 15 12 17 12 11 -2 -4 -13 -1 -15 18 -12 23 4 23 4 3
-11 -19 -15 -19 -15 8 -10 25 4 27 2 22 -17 -5 -18 -4 -19 5 -7 9 11 13 12 17
3 2 -7 14 -13 25 -13 16 0 19 -5 15 -21 -4 -16 -3 -18 9 -8 11 9 14 9 14 0 0
-7 5 -9 10 -6 6 3 10 -2 10 -12 0 -15 2 -16 11 -3 9 12 10 12 6 -5 -3 -15 2
-20 20 -21 12 -1 23 3 23 9 0 6 6 2 14 -8 8 -11 12 -23 10 -26 -2 -4 6 -15 19
-25 12 -10 16 -12 9 -4 -6 8 -12 19 -12 24 1 6 9 1 20 -12 17 -20 19 -21 23
-5 4 16 5 16 6 -1 1 -16 3 -17 19 -5 16 13 16 12 2 -4 -12 -17 -12 -20 3 -28
9 -6 18 -8 20 -7 1 2 16 -5 31 -16 16 -10 25 -13 22 -7 -4 6 -3 11 2 11 5 0
12 -9 15 -21 5 -17 9 -19 25 -10 14 7 19 7 19 -4 0 -8 -4 -12 -8 -9 -4 2 -10
0 -13 -5 -7 -11 13 -9 33 3 10 7 12 6 6 -4 -6 -10 -3 -12 13 -8 12 4 25 1 29
-4 4 -7 1 -8 -7 -3 -9 5 -11 4 -6 -3 4 -7 18 -12 32 -12 21 0 28 -9 26 -31 -1
-4 8 -4 20 -1 15 4 19 2 14 -7 -6 -8 -2 -11 10 -9 11 2 18 -2 17 -9 -1 -6 5
-17 15 -25 15 -12 16 -11 3 5 -9 12 -10 17 -2 17 7 0 9 5 5 13 -4 6 2 4 13 -6
11 -9 23 -14 28 -10 4 5 5 2 1 -5 -4 -7 -13 -9 -19 -6 -8 5 -8 3 0 -6 16 -17
53 -23 53 -9 0 5 -5 7 -12 3 -7 -4 -8 -3 -4 5 9 15 26 5 26 -16 0 -10 6 -13
16 -9 8 3 13 2 10 -3 -3 -5 1 -11 9 -14 10 -4 12 -1 9 11 -2 9 1 7 7 -5 6 -12
18 -24 27 -28 13 -5 13 -3 1 11 -13 16 -12 16 6 7 11 -6 25 -13 30 -15 6 -1 9
-5 8 -8 0 -3 6 -11 14 -19 13 -12 15 -11 9 10 l-6 24 12 -23 c9 -18 18 -22 40
-18 15 2 26 0 22 -5 -3 -5 0 -9 6 -9 6 0 9 -4 5 -9 -3 -5 0 -13 6 -17 8 -4 9
-3 5 4 -4 7 -2 12 3 12 6 0 11 -5 11 -11 0 -8 5 -8 15 1 13 10 15 9 15 -9 0
-11 5 -21 11 -21 5 0 7 5 4 10 -3 6 -2 10 2 10 5 0 14 -9 21 -21 13 -20 14
-20 32 -4 17 16 19 15 30 -4 6 -12 17 -21 24 -21 8 0 19 -7 26 -15 15 -19 31
-10 23 12 -6 15 -5 16 9 3 9 -8 14 -19 11 -25 -2 -5 3 -1 11 9 15 19 22 12 17
-17 -1 -5 3 -6 8 -3 5 4 11 0 14 -6 2 -7 8 -10 12 -6 4 4 2 15 -6 25 -12 14
-10 14 16 -2 39 -24 44 -30 22 -22 -10 4 -16 3 -12 -2 3 -5 21 -8 40 -7 19 2
35 -1 35 -7 0 -5 8 -3 17 4 14 12 16 12 8 0 -6 -11 -4 -13 10 -8 14 6 16 3 12
-14 -5 -20 -5 -20 15 -2 12 10 18 12 14 6 -4 -7 -2 -14 3 -14 6 -1 19 -2 29
-4 9 -1 25 -5 36 -10 11 -5 21 -3 26 4 5 9 9 8 14 -4 3 -9 11 -13 17 -9 8 4 9
3 5 -5 -6 -9 -11 -9 -22 0 -8 7 -14 7 -14 1 0 -18 29 -22 45 -6 8 9 15 11 15
5 0 -17 38 -23 62 -10 22 12 22 11 8 -6 -14 -17 -14 -18 8 -6 19 10 34 -1 15
-12 -5 -2 -1 -2 7 0 8 3 20 5 25 6 6 1 13 6 16 11 4 4 10 3 13 -3 4 -6 2 -11
-3 -11 -6 0 -11 -8 -10 -17 0 -10 3 -13 5 -6 3 7 12 9 21 6 10 -4 14 -2 10 4
-3 5 0 10 8 10 8 0 15 -3 15 -7 0 -4 12 -12 27 -19 l28 -13 -20 23 -20 22 23
-14 c12 -8 22 -18 22 -23 0 -4 7 -3 15 4 13 10 18 11 28 1 9 -10 8 -11 -8 -5
-21 8 -20 6 7 -14 12 -10 18 -10 24 -1 4 8 3 9 -4 5 -18 -11 -14 0 5 15 12 10
15 11 9 1 -6 -9 -1 -11 18 -8 15 3 24 1 21 -5 -4 -5 -12 -6 -18 -3 -9 5 -9 3
0 -6 10 -11 15 -11 29 1 12 9 15 10 10 2 -4 -7 -2 -13 3 -13 6 0 11 5 11 11 0
6 6 4 14 -4 9 -9 26 -12 42 -9 16 3 25 1 21 -5 -3 -5 0 -10 7 -10 8 0 12 7 9
16 -4 13 -2 13 10 -1 15 -19 32 -25 22 -8 -3 6 -1 10 5 10 6 0 15 -10 21 -22
l10 -23 -5 22 c-2 13 0 23 5 23 5 0 9 -4 9 -10 0 -5 5 -10 11 -10 5 0 8 4 5 8
-2 4 11 8 29 8 18 0 31 -4 29 -8 -3 -4 2 -8 11 -8 10 0 13 5 9 12 -4 7 -3 8 4
4 6 -4 9 -13 6 -20 -3 -8 0 -17 7 -22 7 -4 10 -3 6 2 -3 6 -1 16 4 24 8 13 11
12 23 -3 15 -19 36 -23 36 -5 0 6 8 2 18 -10 17 -19 19 -19 29 -3 6 10 18 18
27 18 8 0 13 -4 10 -9 -3 -5 -10 -6 -15 -3 -5 3 -6 -1 -2 -10 4 -12 8 -13 13
-5 4 7 26 10 58 7 29 -3 49 -1 46 4 -3 5 -10 6 -16 3 -7 -4 -8 -2 -4 4 9 15
34 5 39 -16 3 -11 5 -8 6 8 1 14 5 21 9 15 12 -17 47 -41 38 -27 -6 10 1 13
31 11 54 -3 65 0 58 11 -3 5 -1 10 4 10 11 0 15 -13 12 -35 -1 -5 6 -1 14 10
13 16 17 17 24 6 7 -11 10 -10 14 5 4 17 5 17 6 1 1 -15 5 -16 21 -7 19 10 24
6 21 -13 -1 -5 3 -5 9 -2 6 4 9 14 5 22 -4 12 -2 13 7 6 7 -6 25 -13 41 -15
23 -5 25 -3 15 10 -11 13 -10 14 10 3 12 -6 22 -17 22 -22 0 -6 9 -1 21 12 11
13 18 18 14 12 -4 -8 0 -13 10 -13 9 0 13 5 10 10 -3 6 -1 10 4 10 6 0 11 -4
11 -9 0 -5 8 -12 18 -16 14 -5 15 -4 5 6 -7 7 -13 18 -13 23 0 7 3 8 8 1 12
-17 47 -41 38 -28 -4 7 -2 13 3 13 6 0 11 5 11 11 0 8 -5 8 -15 -1 -9 -7 -15
-8 -15 -2 0 22 31 21 40 -1 7 -17 9 -18 9 -4 1 9 4 17 9 18 41 5 82 5 82 -1 0
-4 7 -7 15 -7 8 0 12 4 9 9 -3 4 0 8 5 8 6 0 11 -5 11 -12 0 -6 7 -3 15 8 15
19 15 19 9 -1 -6 -16 -5 -18 7 -8 16 16 33 17 23 1 -4 -7 -3 -8 4 -4 7 4 12
15 13 24 0 14 2 13 9 -3 5 -11 9 -15 9 -9 1 16 39 25 48 12 3 -6 2 -8 -3 -5
-6 3 -16 2 -23 -2 -9 -6 -10 -11 -2 -15 6 -4 11 -3 11 3 0 5 9 8 19 6 15 -3
18 1 14 12 -4 11 -2 14 5 9 7 -4 15 0 18 9 5 12 9 13 20 4 11 -9 14 -8 14 2 1
8 7 3 15 -11 14 -25 14 -25 15 -2 0 12 5 22 11 22 6 0 8 -8 5 -18 -5 -14 -4
-14 9 2 11 14 15 16 15 5 1 -8 7 -3 14 10 10 17 15 20 18 10 4 -11 10 -10 28
6 l23 20 -12 -22 c-6 -13 -8 -23 -3 -23 5 0 14 10 20 23 l11 22 1 -25 c1 -14
4 -19 7 -12 2 6 9 10 14 7 5 -4 6 0 3 8 -2 7 1 14 8 15 7 0 22 3 33 6 11 2 28
5 38 5 11 1 15 6 11 13 -4 7 -3 8 5 4 6 -4 8 -12 5 -18 -5 -7 -2 -8 6 -3 7 4
16 2 21 -6 6 -10 9 -7 10 11 0 14 3 19 6 13 2 -7 9 -13 14 -13 6 0 7 5 4 10
-3 6 -1 10 4 10 6 0 11 -4 11 -8 0 -4 10 -8 23 -9 19 -2 20 -1 5 8 -10 6 -18
15 -18 22 0 7 4 6 10 -3 5 -8 10 -11 10 -6 0 5 8 2 17 -5 9 -8 14 -9 10 -2 -4
7 1 14 13 18 11 3 20 11 20 17 0 6 3 8 6 5 4 -4 2 -13 -4 -20 -9 -11 -7 -13 8
-12 11 1 23 5 27 10 5 4 2 5 -4 1 -7 -4 -13 -3 -13 2 0 16 13 22 27 11 9 -8
17 -8 26 0 8 6 17 8 21 4 4 -4 4 0 1 9 -7 17 9 19 33 4 7 -4 16 -5 19 -2 4 3
1 6 -5 6 -7 0 -12 4 -12 8 0 10 30 9 50 -2 8 -4 4 2 -9 13 -28 25 -15 28 18 4
14 -9 22 -12 20 -7 -3 5 5 19 18 31 23 22 34 18 11 -5 -19 -19 1 -14 33 9 16
11 29 17 29 12 0 -4 7 1 15 11 9 12 15 15 15 7 0 -9 4 -10 13 -4 6 6 26 9 44
8 26 -2 31 0 28 15 -3 16 1 17 25 10 24 -7 28 -6 22 8 -5 15 -4 15 14 2 10 -8
16 -10 12 -6 -5 5 1 16 12 23 11 8 17 19 14 25 -4 5 6 2 22 -8 16 -11 25 -13
20 -6 -6 10 -3 12 10 10 13 -2 19 3 18 15 -2 15 1 16 14 5 13 -11 15 -10 9 4
-5 13 -1 16 20 12 14 -3 31 0 38 6 6 5 24 11 38 12 14 1 23 6 21 10 -3 4 -12
4 -22 1 -18 -7 -17 -5 12 17 11 8 17 10 13 4 -4 -7 0 -15 9 -18 8 -3 12 -2 9
3 -3 5 -1 12 5 16 5 3 10 2 10 -4 0 -6 7 -8 16 -4 9 3 14 13 11 24 -3 12 0 16
9 12 8 -3 11 -10 7 -17 -3 -6 5 1 20 17 25 25 44 37 33 19 -3 -5 1 -9 9 -9 8
0 12 4 9 9 -3 5 0 15 6 24 10 12 16 12 28 2 13 -11 14 -11 7 1 -6 11 -4 13 9
8 10 -4 19 -1 22 8 4 8 10 15 16 15 5 0 6 -6 3 -12 -4 -7 0 -4 9 6 8 10 13 23
9 29 -3 6 -1 7 6 3 6 -4 9 -13 5 -19 -3 -7 1 -4 9 5 8 10 17 15 20 11 4 -3 7
2 7 12 0 15 2 16 17 4 13 -11 15 -11 9 -1 -5 9 -3 13 5 11 20 -3 49 11 49 24
0 5 -9 2 -19 -7 -14 -13 -21 -14 -27 -5 -4 7 -3 10 3 6 6 -4 16 0 23 7 6 8 20
13 32 11 14 -3 18 0 14 11 -3 8 -2 12 3 9 5 -3 12 -1 16 4 3 6 12 8 20 4 10
-3 15 1 15 12 0 9 5 13 10 10 6 -4 7 -11 4 -17 -4 -7 -2 -8 5 -4 6 4 8 12 5
18 -5 8 -1 9 11 4 16 -6 16 -4 4 11 -9 11 -10 14 -1 9 6 -4 12 -2 12 3 0 6 7
11 16 11 8 0 12 5 8 11 -4 8 0 8 15 0 18 -10 20 -9 14 5 -4 11 -2 15 4 11 6
-4 13 0 16 7 3 8 16 20 28 26 12 7 19 8 15 2 -3 -6 -2 -14 4 -17 6 -4 10 -3 9
2 -3 18 3 47 7 36 3 -7 12 -9 20 -6 13 5 13 7 2 14 -10 7 -9 9 5 9 10 0 15 4
12 10 -4 6 4 9 17 7 12 -1 23 3 23 10 0 15 15 30 15 15 0 -7 5 -12 11 -12 6 0
9 7 6 14 -4 10 -1 13 7 10 8 -3 17 0 21 5 3 6 11 8 17 5 5 -4 5 4 -2 17 -10
19 -10 22 0 12 10 -9 16 -8 29 6 9 9 12 10 6 2 -9 -12 -7 -12 12 -1 12 8 19
18 17 22 -3 4 3 8 14 8 27 0 34 11 19 28 -6 9 -7 13 -2 10 14 -8 75 18 75 32
0 7 -7 5 -16 -4 -23 -23 -30 -20 -9 4 14 16 21 17 32 8 8 -6 13 -7 12 -2 -4
24 3 33 24 29 22 -4 22 -4 2 12 -20 15 -20 15 3 10 15 -3 22 -1 22 9 0 8 7 14
16 14 8 0 12 5 9 10 -3 6 -1 10 5 10 6 0 8 5 4 13 -6 9 -4 9 8 -1 17 -14 34
-1 23 18 -3 6 1 7 9 4 9 -4 18 1 22 10 3 9 10 13 15 10 5 -3 9 2 9 10 0 9 7
16 16 16 9 0 12 5 8 12 -5 8 -2 9 12 4 10 -4 15 -4 11 0 -4 5 3 14 15 22 19
11 19 12 3 7 -16 -5 -18 -4 -7 7 7 7 18 13 25 13 7 0 11 8 11 18 -2 15 1 16
15 5 9 -7 13 -8 9 -4 -5 5 1 15 12 23 11 8 20 21 20 29 0 13 13 19 34 15 5 -1
3 6 -5 15 -8 10 -9 15 -2 11 18 -11 43 3 43 25 0 10 4 17 8 14 4 -2 14 -1 22
5 11 6 11 9 2 9 -10 0 -10 3 0 14 7 8 16 12 21 9 4 -2 7 1 7 7 0 7 6 10 14 7
8 -3 13 1 12 11 0 9 5 17 12 18 6 1 15 2 18 3 4 0 0 9 -7 18 -11 13 -11 15 -1
9 17 -10 52 21 45 40 -4 10 0 12 13 8 11 -4 16 -4 12 1 -4 4 0 14 10 22 9 8
11 11 3 7 -10 -5 -12 -3 -7 5 5 7 14 10 21 7 9 -3 12 3 10 20 -2 21 0 22 13
12 13 -10 14 -10 8 0 -4 7 -2 12 5 12 7 0 10 3 7 6 -3 3 4 17 17 31 52 58 60
68 57 76 -1 4 1 6 5 6 5 -1 15 -1 23 0 13 1 13 2 0 11 -12 8 -11 11 8 16 18 5
20 9 10 15 -10 7 -8 9 6 9 13 0 16 5 12 17 -4 10 -4 14 0 10 4 -4 13 1 21 11
8 9 11 11 7 3 -5 -10 -3 -12 5 -7 9 6 9 11 -1 24 -10 12 -10 14 0 8 7 -4 15
-1 18 9 4 10 13 14 23 10 12 -5 13 -3 4 6 -9 9 -6 16 13 33 13 11 25 33 26 47
2 19 6 25 17 21 9 -3 12 -1 7 6 -4 7 -2 12 4 12 6 0 9 4 5 10 -3 5 7 16 22 25
27 15 27 16 3 10 -14 -2 -19 -2 -12 1 6 3 10 10 7 15 -4 5 2 6 11 2 14 -5 16
-2 11 16 -5 19 -3 20 11 9 12 -10 14 -10 8 0 -4 7 -1 15 9 18 12 5 13 9 4 20
-10 12 -9 13 5 8 11 -4 16 -2 14 7 -2 8 3 13 11 11 12 -3 12 0 1 13 -11 13
-10 14 5 9 15 -6 17 -3 13 18 -4 20 -1 25 10 20 10 -3 13 -1 8 6 -4 8 0 12 11
12 15 0 16 2 3 10 -10 6 -11 10 -2 10 6 0 12 9 12 21 0 14 5 19 14 16 10 -4
13 -1 9 9 -3 9 3 21 16 30 16 12 19 19 11 34 -8 15 -6 17 10 13 12 -3 20 0 20
6 0 7 -4 10 -10 6 -5 -3 -3 7 5 21 8 15 11 32 8 37 -3 5 5 3 18 -4 22 -11 23
-11 10 4 -13 16 -8 22 14 17 6 -1 5 4 -2 11 -10 10 -9 15 5 26 10 9 11 12 2 7
-12 -7 -13 -5 -3 8 7 8 9 19 5 24 -4 4 0 3 8 -3 13 -10 16 -7 18 15 1 15 12
35 25 45 12 10 17 16 10 13 -9 -5 -10 0 -1 24 6 18 20 35 32 40 11 5 16 9 10
9 -13 1 -15 31 -2 31 5 0 6 5 2 12 -5 7 -2 9 9 5 11 -4 14 -2 10 9 -3 7 -1 14
4 14 5 0 9 10 8 23 -3 31 5 48 19 40 6 -4 5 0 -2 9 -11 14 -10 18 5 27 10 6
14 11 9 11 -6 0 -1 7 10 15 14 10 15 14 5 15 -11 0 -10 4 5 16 10 8 14 13 8
10 -6 -3 -11 2 -11 11 0 9 8 18 18 20 11 3 15 11 12 24 -3 11 1 21 10 25 9 3
13 12 10 22 -5 11 -2 14 9 9 11 -4 15 0 13 11 -1 9 3 23 9 31 9 12 7 13 -9 8
-15 -5 -12 0 10 19 28 26 29 27 5 20 -14 -3 -19 -3 -12 0 6 3 9 11 6 16 -4 6
-2 8 4 4 6 -3 13 -2 17 4 3 5 1 10 -4 10 -6 0 -11 5 -11 11 0 6 7 9 15 5 19
-7 19 -1 0 17 -13 13 -13 16 1 21 8 3 12 2 9 -4 -3 -6 -1 -10 5 -10 7 0 9 8 5
23 -12 37 -11 42 9 40 13 -1 15 2 7 10 -13 13 -15 30 -2 22 5 -3 13 0 17 6 4
7 3 9 -3 6 -6 -4 -13 0 -16 8 -4 10 -1 12 10 8 10 -4 14 -2 10 4 -4 6 -1 14 5
17 10 5 10 7 1 12 -7 3 -13 10 -13 15 0 6 4 8 9 5 5 -4 7 4 3 16 -5 20 -3 21
10 11 12 -10 15 -10 15 2 0 8 -4 15 -9 15 -5 0 -2 7 6 16 13 12 14 20 5 36 -7
13 -7 18 -1 14 6 -3 13 -2 17 4 3 5 2 10 -4 10 -15 0 -6 32 14 46 14 10 15 14
4 14 -11 0 -12 2 -1 9 8 5 13 24 12 47 -3 61 -1 67 16 60 9 -3 12 -2 9 5 -4 5
-1 16 5 24 7 8 10 16 6 16 -3 1 -10 2 -15 3 -5 0 -13 5 -18 10 -5 5 -2 6 6 1
11 -6 13 -3 8 14 -4 17 -2 20 7 12 9 -8 13 -7 13 4 0 8 -4 15 -9 15 -4 0 -8 5
-8 11 0 5 5 7 10 4 6 -3 10 -2 10 4 0 5 -6 12 -12 14 -8 3 -6 6 5 6 9 1 17 6
17 12 0 5 -6 7 -12 3 -10 -6 -10 -5 -1 8 7 8 9 19 5 23 -4 5 -2 5 4 2 7 -4 14
2 17 14 4 16 3 18 -8 9 -10 -8 -12 -4 -10 20 1 17 5 33 8 37 4 3 1 13 -5 22
-10 13 -10 14 2 3 21 -18 35 -15 19 5 -10 11 -10 14 -1 9 6 -4 12 -2 12 3 0 6
-5 11 -11 11 -5 0 -7 5 -4 10 4 6 9 8 13 6 4 -2 7 26 6 62 -1 37 4 73 10 81 8
11 8 13 0 8 -7 -4 -14 4 -17 20 -5 26 -4 27 10 8 13 -19 14 -18 7 9 -5 22 -4
27 6 21 9 -5 11 -4 6 3 -4 7 -15 12 -24 13 -12 0 -10 3 6 10 13 5 20 14 16 20
-3 6 0 16 7 21 11 8 10 9 -3 4 -22 -7 -24 10 -2 18 14 5 14 9 3 22 -10 13 -10
17 2 26 11 7 11 11 2 15 -18 7 -16 26 1 20 10 -4 13 -1 9 9 -3 7 -9 14 -15 14
-5 0 -6 5 -3 10 4 6 11 7 17 4 7 -4 8 -2 4 5 -14 22 -16 72 -3 65 9 -5 9 -4 0
6 -6 7 -9 19 -6 26 3 8 -1 14 -8 14 -11 0 -11 2 1 10 8 5 11 12 8 15 -4 4 -3
18 3 32 6 16 6 22 -1 18 -6 -3 -10 -1 -10 4 0 6 5 11 10 11 6 0 10 5 10 11 0
5 -4 7 -10 4 -12 -7 -12 2 0 30 5 14 2 26 -9 39 -11 13 -12 17 -2 11 11 -6 13
-3 9 13 -4 13 -1 22 5 22 7 0 3 7 -7 15 -11 9 -14 15 -7 15 8 0 10 7 6 21 -5
15 -4 19 5 14 9 -6 9 -3 1 12 -6 11 -8 23 -4 26 3 4 0 14 -8 24 -12 14 -12 16
0 8 11 -6 12 -1 7 28 -5 24 -3 37 6 40 8 3 6 6 -4 6 -20 1 -25 21 -5 21 8 0 8
3 1 8 -14 9 -27 45 -14 37 17 -10 11 7 -7 22 -17 14 -17 14 -1 9 10 -3 20 0
24 6 5 7 2 8 -6 3 -10 -6 -12 -4 -7 8 3 9 1 19 -5 23 -7 4 -8 3 -4 -4 4 -7 2
-12 -3 -12 -14 0 -14 13 1 28 9 9 9 12 -1 12 -7 0 -9 5 -5 12 10 15 12 58 3
52 -4 -2 -8 24 -8 58 -2 90 -5 112 -14 119 -5 4 -9 23 -9 44 0 21 -3 33 -7 26
-4 -6 -8 2 -8 20 0 29 2 30 14 13 7 -10 13 -13 13 -8 0 6 -11 21 -25 34 -14
14 -21 28 -17 34 5 6 7 17 6 24 -1 6 -2 19 -3 28 0 8 -5 12 -11 9 -5 -3 -10
-1 -10 4 0 6 8 11 18 11 14 0 15 2 2 9 -8 6 -18 7 -24 4 -5 -3 -6 -1 -2 6 4 6
11 9 16 6 5 -3 12 0 16 6 4 8 3 9 -4 5 -13 -8 -35 29 -29 47 2 7 -3 18 -12 25
-9 8 -11 11 -5 8 7 -3 14 1 18 9 3 8 1 15 -5 15 -6 0 -5 9 2 23 11 19 11 21
-3 9 -13 -10 -18 -10 -24 -1 -4 8 -3 9 4 5 7 -4 12 -3 12 3 0 5 -5 13 -10 16
-6 4 -8 11 -5 16 4 5 1 9 -6 9 -10 0 -10 3 -1 12 15 15 16 31 0 22 -8 -5 -9
-2 -5 9 4 10 1 17 -6 17 -8 0 -6 4 3 10 12 8 12 10 -5 10 -15 0 -17 2 -6 9 11
7 11 9 0 13 -12 4 -11 8 1 23 8 10 10 16 4 12 -7 -4 -17 0 -24 8 -10 12 -10
15 0 15 10 0 10 3 0 15 -7 8 -9 22 -6 31 5 13 4 14 -7 6 -22 -18 -29 -1 -10
21 17 19 17 20 1 14 -21 -7 -23 4 -5 22 10 10 9 11 -3 6 -10 -3 -16 1 -17 12
-2 57 -9 83 -21 88 -8 3 -11 12 -8 20 3 8 1 15 -5 15 -6 0 -7 4 -4 10 3 5 2
18 -4 28 -6 11 -6 24 1 37 6 11 7 17 3 13 -5 -4 -15 -2 -24 5 -14 10 -14 10
-3 -5 9 -11 10 -18 2 -23 -6 -4 -10 -3 -9 2 1 4 0 10 -1 13 -7 20 -7 39 2 34
5 -3 4 3 -4 15 -7 12 -17 21 -23 21 -5 0 -3 5 5 10 13 8 12 10 -3 10 -10 0
-15 5 -12 10 3 6 1 10 -6 10 -8 0 -8 4 1 15 8 10 9 15 2 15 -7 0 -9 8 -5 18 6
15 5 16 -12 2 -17 -14 -18 -14 -5 10 12 22 12 24 -3 12 -13 -11 -15 -10 -10 7
3 14 1 21 -8 21 -11 0 -11 2 1 10 10 6 11 10 3 10 -7 0 -12 3 -12 8 4 22 -2
42 -11 37 -9 -5 -15 24 -11 49 1 5 -5 6 -12 3 -11 -4 -13 0 -9 15 4 16 2 19
-9 13 -12 -8 -12 -6 0 8 12 15 12 17 -3 11 -12 -5 -15 -2 -10 10 3 9 1 16 -5
16 -6 0 -8 6 -5 14 3 8 0 17 -7 22 -8 4 -10 3 -5 -4 4 -7 5 -12 2 -12 -3 0
-12 13 -20 29 -12 22 -12 31 -3 41 9 10 9 11 0 6 -7 -4 -13 -2 -13 3 0 6 -7
11 -15 11 -9 0 -12 6 -8 15 3 9 -3 23 -13 31 -11 9 -13 12 -6 9 11 -6 12 -3 3
12 -6 11 -7 24 -3 29 4 5 -2 2 -12 -6 -18 -14 -19 -13 -13 3 3 9 2 17 -3 17
-5 0 -7 6 -4 14 3 8 -3 16 -15 19 -14 3 -19 10 -15 21 4 10 1 16 -7 16 -12 0
-11 2 0 9 11 7 10 12 -8 22 -11 8 -21 22 -21 32 0 12 -4 16 -12 11 -10 -6 -10
-5 -1 8 11 12 9 17 -11 26 -18 8 -24 18 -22 36 3 21 0 24 -14 16 -14 -8 -17
-5 -16 13 0 12 -4 21 -11 20 -7 -2 -10 3 -7 11 3 7 -2 16 -10 19 -9 4 -16 16
-16 27 0 12 -4 18 -10 15 -5 -3 -10 1 -10 10 0 9 -4 13 -10 10 -9 -5 -15 23
-11 48 1 7 -15 11 -31 8 -5 0 -8 8 -8 19 0 11 -4 20 -10 20 -5 0 -10 6 -10 14
0 8 -8 21 -17 28 -10 7 -18 19 -19 26 -2 28 -4 33 -13 27 -12 -7 -33 29 -24
39 3 3 -1 6 -10 6 -9 0 -17 7 -17 16 0 8 -4 13 -8 10 -4 -2 -14 9 -21 25 -7
16 -19 29 -27 29 -9 0 -12 5 -9 10 3 6 1 10 -5 10 -6 0 -15 11 -20 25 -5 14
-16 28 -25 31 -8 3 -12 11 -8 18 4 6 -2 4 -12 -4 -12 -10 -16 -10 -11 -2 4 7
2 19 -4 27 -7 8 -9 15 -4 16 5 0 -4 7 -21 14 -16 8 -23 14 -15 15 12 0 11 3
-3 11 -9 6 -15 14 -12 18 2 5 -5 17 -17 27 -14 12 -18 14 -13 4 5 -9 0 -8 -13
4 -24 21 -29 30 -9 21 6 -4 3 1 -8 9 -11 9 -25 14 -33 11 -7 -2 -11 -1 -7 4 3
5 2 11 -2 14 -5 2 -2 2 5 0 7 -1 10 2 7 7 -3 6 -12 10 -19 10 -8 0 -21 12 -31
26 -9 14 -22 23 -29 21 -9 -4 -12 3 -9 21 4 21 2 24 -6 12 -9 -13 -11 -13 -11
1 0 9 -8 23 -17 30 -16 13 -17 12 -4 -4 12 -15 12 -17 -3 -11 -9 3 -16 15 -16
25 0 11 -7 19 -16 19 -8 0 -13 3 -11 8 3 4 -1 12 -8 19 -11 10 -15 10 -18 0
-3 -7 -6 -2 -6 11 -1 16 -7 22 -22 22 -19 0 -20 2 -8 17 9 11 10 14 2 9 -7 -4
-20 2 -30 14 -10 11 -23 20 -30 20 -7 0 -18 9 -25 20 -7 11 -19 20 -26 20 -9
0 -12 6 -8 16 4 12 1 14 -14 9 -11 -4 -20 -3 -19 2 4 22 -3 33 -21 33 -11 0
-20 7 -20 16 0 8 -4 12 -10 9 -5 -3 -10 -1 -10 5 0 6 -4 8 -10 5 -5 -3 -10 1
-10 10 0 10 -5 13 -12 9 -8 -5 -9 -2 -5 9 3 9 3 16 -1 16 -24 -4 -42 3 -42 17
0 8 -4 13 -8 10 -4 -2 -18 9 -31 25 -13 16 -30 29 -38 29 -8 0 -12 4 -9 9 7
10 -23 26 -55 30 -6 0 -9 7 -6 15 4 10 0 12 -14 9 -10 -3 -19 0 -19 6 0 6 -9
11 -19 11 -11 0 -23 4 -26 10 -4 6 1 7 12 4 16 -6 15 -5 -2 9 -10 8 -25 13
-32 10 -8 -3 -13 2 -13 12 0 15 -2 16 -17 4 -9 -8 -14 -9 -11 -4 3 6 -5 20
-18 32 -15 15 -24 18 -27 10 -3 -7 -6 -4 -6 6 -1 10 -5 15 -11 12 -5 -3 -10 2
-10 12 0 15 -2 16 -10 3 -8 -13 -10 -12 -10 3 0 10 -8 17 -18 17 -21 0 -68 37
-65 51 2 5 -9 4 -23 -1 -17 -7 -23 -7 -19 0 3 6 1 10 -5 10 -6 0 -8 5 -5 10 3
6 0 10 -8 10 -22 0 -68 26 -60 34 4 4 -1 4 -11 0 -13 -5 -17 -4 -12 4 5 8 2
10 -8 6 -9 -3 -16 -1 -16 5 0 6 -7 11 -16 11 -8 0 -13 4 -10 8 3 5 -5 8 -17 7
-26 -3 -49 13 -40 28 3 5 1 7 -5 3 -6 -3 -13 -2 -17 4 -3 5 -15 10 -26 10 -10
0 -19 5 -19 10 0 6 -5 10 -11 10 -5 0 -7 -4 -4 -10 10 -16 -1 -11 -16 7 -12
14 -12 16 0 8 10 -5 12 -4 7 3 -4 7 -16 12 -27 12 -14 0 -18 4 -13 13 5 8 2 7
-9 -2 -10 -8 -20 -11 -24 -7 -3 3 -1 6 6 6 9 0 8 4 -3 15 -16 16 -31 20 -22 7
3 -5 -1 -9 -9 -9 -8 0 -11 5 -8 10 4 6 -1 8 -11 4 -13 -5 -17 -3 -13 7 4 10
-1 13 -18 11 -15 -1 -22 2 -18 8 4 6 0 8 -10 4 -10 -3 -17 -2 -17 3 0 6 -7 10
-16 10 -8 0 -13 4 -10 8 3 5 -1 9 -9 9 -8 0 -12 -4 -9 -9 4 -5 -3 -4 -15 4
-12 7 -21 17 -21 23 0 5 -4 4 -9 -4 -7 -11 -11 -8 -16 10 -8 23 -8 23 -16 4
-7 -19 -8 -19 -15 4 -7 23 -8 24 -15 5 -7 -16 -8 -17 -8 -1 -1 10 -9 17 -22
17 -13 0 -18 4 -13 13 5 8 2 8 -9 -2 -15 -12 -17 -11 -17 5 0 16 -2 17 -10 4
-8 -13 -10 -12 -10 4 0 11 -3 16 -7 13 -3 -4 -13 -1 -21 6 -9 6 -13 7 -10 2 4
-6 -2 -11 -12 -11 -10 0 -16 5 -13 10 4 5 -3 7 -16 3 -18 -4 -20 -3 -11 8 13
15 -5 16 -29 1 -10 -6 -20 -2 -33 14 -10 12 -18 16 -18 9 0 -8 -6 -5 -16 7 -8
10 -13 14 -10 7 4 -7 -1 -9 -15 -6 -16 4 -17 8 -7 14 7 5 8 9 2 9 -5 0 -16 -6
-23 -12 -11 -10 -13 -10 -7 0 5 7 1 12 -9 12 -12 0 -15 -5 -11 -17 4 -10 -4
-5 -20 11 -20 20 -35 26 -55 22 -23 -3 -27 -1 -24 15 2 11 0 17 -5 14 -5 -3
-12 -1 -15 5 -5 8 -11 7 -21 -1 -10 -8 -14 -8 -14 0 0 6 -17 11 -40 11 -22 0
-40 4 -40 9 0 5 -7 12 -16 15 -14 5 -15 4 -4 -9 11 -13 10 -14 -4 -9 -9 3 -16
11 -16 16 0 6 -6 6 -14 -1 -11 -9 -16 -9 -22 0 -5 8 -3 9 6 4 9 -5 11 -4 6 4
-6 9 -11 9 -22 0 -11 -9 -14 -8 -14 2 0 11 -2 11 -10 -1 -5 -8 -10 -10 -10 -4
0 6 -13 10 -29 9 -19 -1 -27 3 -25 10 7 17 -28 15 -51 -4 -19 -15 -19 -15 -5
3 14 18 13 19 -2 13 -10 -3 -20 -2 -23 3 -4 6 -15 6 -28 -2 -19 -10 -21 -9 -9
4 8 10 9 19 3 22 -5 4 -12 2 -16 -3 -3 -6 -13 -7 -22 -4 -12 5 -14 3 -8 -7 6
-10 4 -11 -6 -4 -8 4 -21 9 -29 11 -8 1 -16 7 -18 12 -2 6 -8 11 -13 11 -6 0
-8 -4 -5 -9 4 -5 -5 -4 -18 2 -13 7 -22 16 -19 21 4 5 1 6 -5 2 -6 -4 -8 -14
-5 -24 4 -13 2 -13 -10 3 -16 20 -16 20 -17 1 0 -20 0 -20 -14 -1 -8 11 -12
24 -9 30 4 5 -6 -1 -21 -15 -20 -18 -25 -20 -20 -7 7 20 -6 23 -24 5 -9 -9
-12 -9 -12 2 0 11 -3 11 -12 2 -18 -18 -32 -14 -17 5 13 15 12 15 -6 5 -16 -8
-24 -7 -40 6 -19 16 -19 16 -5 -2 14 -17 13 -18 -8 -12 -15 5 -22 3 -22 -6 0
-8 -3 -9 -8 -2 -4 5 -17 10 -29 11 -40 1 -44 3 -38 13 3 6 2 10 -4 10 -5 0
-11 -6 -14 -12 -3 -10 -8 -10 -18 1 -12 12 -12 13 1 6 8 -5 11 -4 7 0 -13 15
-39 15 -33 -1 4 -11 2 -12 -14 -2 -10 7 -17 16 -14 20 3 4 -2 5 -11 2 -13 -5
-13 -9 -3 -23 9 -12 7 -11 -9 2 -22 19 -62 20 -75 2 -4 -6 -8 -1 -8 9 0 19 0
19 -13 1 -11 -14 -16 -15 -22 -5 -6 9 -4 11 5 5 9 -5 11 -4 6 3 -5 9 -15 7
-34 -6 -14 -9 -23 -12 -19 -6 4 7 -2 12 -18 12 -15 0 -22 -5 -18 -12 3 -6 -3
-3 -14 7 -16 14 -23 15 -29 6 -5 -8 -3 -10 6 -4 8 5 11 4 6 -3 -4 -6 -13 -9
-21 -6 -8 4 -12 11 -8 17 4 6 1 7 -8 1 -20 -12 -59 -13 -59 -1 0 6 -6 3 -13
-8 -11 -14 -16 -15 -22 -5 -6 9 -4 11 5 5 9 -5 11 -4 6 3 -5 9 -15 7 -34 -6
-14 -9 -23 -12 -20 -7 4 7 -13 11 -47 11 -43 0 -52 -3 -47 -16 3 -8 -4 -4 -16
10 -12 14 -20 18 -17 9 4 -12 0 -15 -17 -14 -13 1 -22 8 -20 14 3 17 -15 13
-22 -5z m-596 -94 c0 -5 -5 -10 -11 -10 -5 0 -7 5 -4 10 3 6 8 10 11 10 2 0 4
-4 4 -10z m2178 -85 c-3 -3 -9 2 -12 12 -6 14 -5 15 5 6 7 -7 10 -15 7 -18z
m-3158 -235 c0 -5 -5 -10 -11 -10 -5 0 -7 5 -4 10 3 6 8 10 11 10 2 0 4 -4 4
-10z m-30 -10 c0 -5 -5 -10 -11 -10 -5 0 -7 5 -4 10 3 6 8 10 11 10 2 0 4 -4
4 -10z m4705 -480 c3 -5 1 -10 -4 -10 -6 0 -11 5 -11 10 0 6 2 10 4 10 3 0 8
-4 11 -10z m-5995 -409 c0 -5 -7 -12 -16 -15 -14 -5 -15 -4 -4 9 14 17 20 19
20 6z m-181 -184 c-2 -1 -13 -9 -24 -17 -19 -14 -19 -14 -6 3 7 9 18 17 24 17
6 0 8 -1 6 -3z m6885 -45 c3 -5 -1 -9 -9 -9 -8 0 -12 4 -9 9 3 4 7 8 9 8 2 0
6 -4 9 -8z m114 -157 c-3 -3 -9 2 -12 12 -6 14 -5 15 5 6 7 -7 10 -15 7 -18z
m-7378 -269 c0 -3 -4 -8 -10 -11 -5 -3 -10 -1 -10 4 0 6 5 11 10 11 6 0 10 -2
10 -4z m-790 -1766 c0 -5 -5 -10 -11 -10 -5 0 -7 5 -4 10 3 6 8 10 11 10 2 0
4 -4 4 -10z m10 -1886 c0 -2 -7 -4 -15 -4 -8 0 -15 4 -15 10 0 5 7 7 15 4 8
-4 15 -8 15 -10z m9145 -34 c-3 -5 -12 -10 -18 -10 -7 0 -6 4 3 10 19 12 23
12 15 0z m-8769 -1120 c0 -12 -4 -16 -9 -11 -5 5 -6 14 -3 20 10 15 12 14 12
-9z m8249 -229 c3 -5 2 -12 -3 -15 -5 -3 -9 1 -9 9 0 17 3 19 12 6z m-269
-429 c-18 -16 -18 -16 -6 6 6 13 14 21 18 18 3 -4 -2 -14 -12 -24z m-6621
-1001 c-6 -5 -25 10 -25 20 0 5 6 4 14 -3 8 -7 12 -15 11 -17z m5555 -67 c0
-8 -19 -13 -24 -6 -3 5 1 9 9 9 8 0 15 -2 15 -3z m-5050 -264 c0 -5 -2 -10 -4
-10 -3 0 -8 5 -11 10 -3 6 -1 10 4 10 6 0 11 -4 11 -10z m717 -335 c0 -8 -4
-12 -9 -9 -5 3 -6 10 -3 15 9 13 12 11 12 -6z m106 -35 c3 -11 1 -18 -4 -14
-5 3 -9 12 -9 20 0 20 7 17 13 -6z m2782 -70 c-3 -5 -12 -10 -18 -10 -7 0 -6
4 3 10 19 12 23 12 15 0z m-1565 -170 c0 -5 -2 -10 -4 -10 -3 0 -8 5 -11 10
-3 6 -1 10 4 10 6 0 11 -4 11 -10z m286 -2 c3 -4 -1 -5 -10 -4 -8 1 -18 5 -22
8 -3 4 1 5 10 4 8 -1 18 -5 22 -8z"/>
<path d="M5546 9799 c4 -8 30 -6 38 2 3 3 -5 5 -19 5 -13 0 -22 -3 -19 -7z"/>
<path d="M5895 9760 c3 -5 8 -10 11 -10 2 0 4 5 4 10 0 6 -5 10 -11 10 -5 0
-7 -4 -4 -10z"/>
<path d="M6025 9740 c-3 -6 1 -7 9 -4 18 7 21 14 7 14 -6 0 -13 -4 -16 -10z"/>
<path d="M6470 9625 c0 -7 30 -13 34 -7 3 4 -4 9 -15 9 -10 1 -19 0 -19 -2z"/>
<path d="M6627 9573 c3 -7 8 -13 12 -13 4 0 8 6 8 13 0 8 -6 14 -13 14 -7 0
-10 -6 -7 -14z"/>
<path d="M3313 9455 c0 -8 4 -12 9 -9 5 3 6 10 3 15 -9 13 -12 11 -12 -6z"/>
<path d="M1375 7940 c-3 -5 -1 -10 4 -10 6 0 11 5 11 10 0 6 -2 10 -4 10 -3 0
-8 -4 -11 -10z"/>
<path d="M963 7275 c-7 -8 -9 -16 -4 -19 5 -3 12 1 15 10 8 22 4 25 -11 9z"/>
<path d="M680 6579 c0 -5 5 -7 10 -4 6 3 10 8 10 11 0 2 -4 4 -10 4 -5 0 -10
-5 -10 -11z"/>
<path d="M631 6413 c3 -20 -2 -27 -11 -13 -6 9 -10 10 -10 3 0 -19 17 -24 29
-9 9 10 9 16 1 21 -6 4 -10 3 -9 -2z"/>
<path d="M9675 6280 c-3 -5 -1 -10 4 -10 6 0 11 5 11 10 0 6 -2 10 -4 10 -3 0
-8 -4 -11 -10z"/>
<path d="M9713 6135 c0 -8 4 -12 9 -9 5 3 6 10 3 15 -9 13 -12 11 -12 -6z"/>
<path d="M510 5986 c0 -2 7 -7 16 -10 8 -3 12 -2 9 4 -6 10 -25 14 -25 6z"/>
<path d="M9725 5980 c3 -5 8 -10 11 -10 2 0 4 5 4 10 0 6 -5 10 -11 10 -5 0
-7 -4 -4 -10z"/>
<path d="M517 5953 c-10 -9 -9 -23 1 -23 5 0 9 7 9 15 0 17 -1 18 -10 8z"/>
<path d="M505 5889 c-4 -6 -5 -12 -2 -15 2 -3 7 2 10 11 7 17 1 20 -8 4z"/>
<path d="M9755 5881 c-3 -5 -2 -12 3 -15 5 -3 9 1 9 9 0 17 -3 19 -12 6z"/>
<path d="M466 5642 c-3 -4 4 -9 15 -9 23 -2 25 3 4 10 -8 4 -16 3 -19 -1z"/>
<path d="M472 4621 c4 -13 18 -16 19 -4 0 4 -5 9 -11 12 -7 2 -11 -2 -8 -8z"/>
<path d="M9745 4391 c-3 -5 0 -13 6 -17 7 -4 9 -3 5 4 -3 5 0 13 6 15 9 4 10
6 1 6 -6 1 -14 -3 -18 -8z"/>
<path d="M510 4320 c0 -5 5 -10 11 -10 5 0 7 5 4 10 -3 6 -8 10 -11 10 -2 0
-4 -4 -4 -10z"/>
<path d="M542 4151 c-11 -7 -11 -9 0 -14 9 -3 15 1 15 9 0 8 -1 14 -1 14 -1 0
-7 -4 -14 -9z"/>
<path d="M9665 3980 c-3 -5 -2 -10 4 -10 5 0 13 5 16 10 3 6 2 10 -4 10 -5 0
-13 -4 -16 -10z"/>
<path d="M797 3303 c3 -7 6 -13 8 -13 2 0 5 6 8 13 3 8 -1 14 -8 14 -7 0 -11
-6 -8 -14z"/>
<path d="M1005 2880 c3 -5 8 -10 11 -10 2 0 4 5 4 10 0 6 -5 10 -11 10 -5 0
-7 -4 -4 -10z"/>
<path d="M1553 2087 c0 -8 6 -14 14 -14 9 0 10 4 2 14 -6 7 -12 13 -14 13 -1
0 -2 -6 -2 -13z"/>
<path d="M2340 1326 c0 -2 9 -6 20 -9 11 -3 18 -1 14 4 -5 9 -34 13 -34 5z"/>
<path d="M7665 1181 c-3 -5 -2 -12 3 -15 5 -3 9 1 9 9 0 17 -3 19 -12 6z"/>
<path d="M2670 1120 c0 -5 5 -10 11 -10 5 0 7 5 4 10 -3 6 -8 10 -11 10 -2 0
-4 -4 -4 -10z"/>
<path d="M7490 1059 c0 -5 5 -7 10 -4 6 3 10 8 10 11 0 2 -4 4 -10 4 -5 0 -10
-5 -10 -11z"/>
<path d="M2995 930 c3 -5 8 -10 11 -10 2 0 4 5 4 10 0 6 -5 10 -11 10 -5 0 -7
-4 -4 -10z"/>
<path d="M7225 930 c-3 -5 -1 -10 4 -10 6 0 11 5 11 10 0 6 -2 10 -4 10 -3 0
-8 -4 -11 -10z"/>
<path d="M3295 799 c-4 -6 -5 -12 -2 -15 2 -3 7 2 10 11 7 17 1 20 -8 4z"/>
<path d="M6655 680 c-4 -6 -10 -8 -14 -6 -4 3 -8 -1 -8 -9 0 -13 3 -13 17 0 9
8 20 12 25 8 4 -5 5 -2 1 5 -9 15 -13 15 -21 2z"/>
<path d="M6090 520 c0 -5 5 -10 11 -10 5 0 7 5 4 10 -3 6 -8 10 -11 10 -2 0
-4 -4 -4 -10z"/>
<path d="M5970 500 c0 -5 5 -10 11 -10 5 0 7 5 4 10 -3 6 -8 10 -11 10 -2 0
-4 -4 -4 -10z"/>
<path d="M5855 480 c3 -5 8 -10 11 -10 2 0 4 5 4 10 0 6 -5 10 -11 10 -5 0 -7
-4 -4 -10z"/>
<path d="M4681 444 c0 -11 3 -14 6 -6 3 7 2 16 -1 19 -3 4 -6 -2 -5 -13z"/>
<path d="M5555 449 c-4 -5 -4 -13 -1 -16 3 -4 6 0 6 8 0 11 2 11 10 -1 6 -9
10 -10 10 -3 0 17 -17 25 -25 12z"/>
<path d="M5598 453 c6 -2 9 -10 6 -15 -4 -7 -2 -8 5 -4 13 9 5 26 -12 25 -9 0
-8 -2 1 -6z"/>
</g>
</svg>
